<?xml version="1.0" standalone="no"?><!DOCTYPE svg PUBLIC "-//W3C//DTD SVG 1.1//EN" "http://www.w3.org/Graphics/SVG/1.1/DTD/svg11.dtd"><svg class="icon" height="512" viewBox="0 0 1024 1024" version="1.1" xmlns="http://www.w3.org/2000/svg"><path d="M461.5 779.6h95.3V673h-95.3z" fill="#FDCC9B" /><path d="M461.5 685.5s40.1 25.5 95.3 19.5v-32h-95.3v12.5zM370.3 507.1c0 29.2-20.7 53.1-46.6 53.1-25.5 0-46.2-23.5-46.2-53.1 0-29.2 20.7-53.1 46.6-53.1 25.5 0.4 46.2 23.9 46.2 53.1zM740.9 507.1c0 29.2-20.7 53.1-46.6 53.1s-46.6-23.9-46.6-53.1 20.7-53.1 46.6-53.1 46.6 23.9 46.6 53.1z" fill="#FCBC85" /><path d="M694.3 405.7c0-78.3-57.2-135.4-184.9-135.4s-184.9 57.2-184.9 135.4S311.1 690 509.4 690s184.9-206 184.9-284.3z" fill="#FDCC9B" /><path d="M439.2 494.5c0 12.2-8.9 21.9-19.9 21.9-10.9 0-19.9-9.7-19.9-21.9s8.9-21.9 19.9-21.9c10.6 0 19.9 9.8 19.9 21.9z" fill="#3B2519" /><path d="M416.1 484.8c0 3.2-2.8 6.1-6.1 6.1s-6.1-2.8-6.1-6.1c0-3.2 2.8-6.1 6.1-6.1 3.7 0 6.1 2.9 6.1 6.1z" fill="#FFFFFF" /><path d="M386.9 440.2c9.3 4.9 24.7-16.2 59.6 2 6.5 3.2 10.1-28.4-27.2-28.4-32.4 0.1-38.1 23.6-32.4 26.4z" fill="#51362A" /><path d="M621.7 494.5c0 12.2-8.9 21.9-19.9 21.9s-19.9-9.7-19.9-21.9 8.9-21.9 19.9-21.9 19.9 9.8 19.9 21.9z" fill="#3B2519" /><path d="M599 484.8c0 3.2-2.8 6.1-6.1 6.1-3.2 0-6.1-2.8-6.1-6.1 0-3.2 2.8-6.1 6.1-6.1s6.1 2.9 6.1 6.1z" fill="#FFFFFF" /><path d="M631.4 440.2c-9.3 4.9-24.7-16.2-59.6 2-6.5 3.2-10.1-28.4 27.2-28.4 32.4 0.1 38.1 23.6 32.4 26.4z" fill="#51362A" /><path d="M509 571.6c-19.9 0-31.6-14.6-31.6-7.7 0 7.3 5.7 20.7 31.6 20.7 26 0 31.6-13.8 31.6-20.7 0.4-6.9-11.8 7.7-31.6 7.7zM509 637.7c-6.9 0-10.9-5.3-10.9-2.8 0 2.4 2 7.3 10.9 7.3s10.9-4.9 10.9-7.3c0-2.5-4 2.8-10.9 2.8z" fill="#FCBC85" /><path d="M509 619.4c-31.2 0-50.3-12.6-50.3-9.7 0 3.2 8.9 15.8 50.3 15.8s50.3-12.6 50.3-15.8c0-3.2-18.7 9.7-50.3 9.7z" fill="#F8945E" /><path d="M509 715.9v120H277.4c0-48.6 122.1-120 231.6-120zM509 715.9v120h231.5c0.4-48.6-121.6-120-231.5-120z" fill="#F8941E" /><path d="M509 715.9c-23.5 0-47 3.2-70.6 8.9 0 0 25.5 33.3 70.6 33.3 41.4 0 68.9-28.4 73-32.4-24-6.5-48.7-9.8-73-9.8z" fill="#F36C21" /><path d="M461.5 720s13.8 17.4 47.8 17.4c33.7 0 47.8-17.4 47.8-17.4s-49.7-17.8-95.6 0z" fill="#FDCC9B" /><path d="M661 253.7s-68.5-87.2-211.3-54.3S296.5 318.2 301 401.7c4.1 83.5 15.4 132.6 29.2 126.5 13.4-6.1 6.5-61.2 8.1-73.8 1.6-12.6 14.2-70.1 101-61.6C526 401.3 599 369.7 599 369.7s29.6 37.3 48.7 44.2c38.5 14.2 26 109.1 41.4 109.1 14.9 0.3 89.5-219-28.1-269.3z" fill="#51362A" /></svg>